# xmcd CD database file
#
# Track frame offsets:
#	150
#	38872
#	57733
#	74894
#	133763
#	146785
#	158368
#	211687
#	222738
#
# Disc length: 3125 seconds
#
# Revision: 0
# Processed by: cddbd v1.5.2PL0 Copyright (c) Steve Scherf et al.
# Submitted via: CDex 1.50Beta3
#
DISCID=960c3309
DTITLE=Charles Mingus - Mysterious Blues [CD10)
DYEAR=1900
DGENRE=Jazz
TTITLE0=The Spur of the Moment - Echonitus
TTITLE1=Time After Time
TTITLE2=Wrap Your Troubles in Dreams
TTITLE3=Folk Forms no.1
TTITLE4=I Can't Believe That You're in Love With me
TTITLE5=Lullaby of Birdland
TTITLE6=R&R
TTITLE7=Swedish Pastry
TTITLE8=Untitled Blues
EXTD=
EXTT0=
EXTT1=
EXTT2=
EXTT3=
EXTT4=
EXTT5=
EXTT6=
EXTT7=
EXTT8=
PLAYORDER=
